<?xml version="1.0" encoding="UTF-8" standalone="no"?>
<!-- Created with Inkscape (http://www.inkscape.org/) -->

<svg
   width="512"
   height="512"
   viewBox="0 0 512 511.99996"
   version="1.1"
   id="svg1"
   xml:space="preserve"
   sodipodi:docname="iconEzanClock.svg"
   inkscape:version="1.4 (e7c3feb100, 2024-10-09)"
   inkscape:export-filename="icon.png"
   inkscape:export-xdpi="96"
   inkscape:export-ydpi="96"
   xmlns:inkscape="http://www.inkscape.org/namespaces/inkscape"
   xmlns:sodipodi="http://sodipodi.sourceforge.net/DTD/sodipodi-0.dtd"
   xmlns:xlink="http://www.w3.org/1999/xlink"
   xmlns="http://www.w3.org/2000/svg"
   xmlns:svg="http://www.w3.org/2000/svg"><sodipodi:namedview
     id="namedview1"
     pagecolor="#505050"
     bordercolor="#ffffff"
     borderopacity="1"
     inkscape:showpageshadow="0"
     inkscape:pageopacity="0"
     inkscape:pagecheckerboard="1"
     inkscape:deskcolor="#505050"
     inkscape:document-units="px"
     inkscape:zoom="1.0214844"
     inkscape:cx="282.9216"
     inkscape:cy="280.47418"
     inkscape:window-width="1920"
     inkscape:window-height="1002"
     inkscape:window-x="0"
     inkscape:window-y="0"
     inkscape:window-maximized="1"
     inkscape:current-layer="svg1"
     showguides="true"
     inkscape:export-bgcolor="#ffffff00"
     showgrid="false"><inkscape:grid
       id="grid45"
       units="px"
       originx="0"
       originy="0"
       spacingx="1"
       spacingy="0.99999992"
       empcolor="#0099e5"
       empopacity="0.30196078"
       color="#0099e5"
       opacity="0.14901961"
       empspacing="5"
       enabled="true"
       visible="false" /></sodipodi:namedview><defs
     id="defs1"><linearGradient
       id="linearGradient2"
       inkscape:collect="always"><stop
         style="stop-color:#707070;stop-opacity:1;"
         offset="0"
         id="stop1" /><stop
         style="stop-color:#000000;stop-opacity:1;"
         offset="1"
         id="stop2" /></linearGradient><linearGradient
       id="linearGradient437"
       inkscape:collect="always"><stop
         style="stop-color:#000000;stop-opacity:1;"
         offset="0"
         id="stop437" /><stop
         style="stop-color:#000000;stop-opacity:0;"
         offset="1"
         id="stop438" /></linearGradient><inkscape:perspective
       sodipodi:type="inkscape:persp3d"
       inkscape:vp_x="-83.78848 : 418.92778 : 1"
       inkscape:vp_y="0 : 1000 : 0"
       inkscape:vp_z="187.58601 : 416.51639 : 1"
       inkscape:persp3d-origin="64 : 426.66663 : 1"
       id="perspective372" /><linearGradient
       id="linearGradient366"
       inkscape:collect="always"><stop
         style="stop-color:#edc702;stop-opacity:1;"
         offset="0"
         id="stop367" /><stop
         style="stop-color:#ed3b02;stop-opacity:1;"
         offset="1"
         id="stop366" /></linearGradient><linearGradient
       id="swatch364"><stop
         style="stop-color:#000000;stop-opacity:1;"
         offset="0"
         id="stop364" /></linearGradient><radialGradient
       inkscape:collect="always"
       xlink:href="#linearGradient366"
       id="radialGradient367"
       cx="64"
       cy="64"
       fx="64"
       fy="64"
       r="64"
       gradientUnits="userSpaceOnUse"
       gradientTransform="scale(4)" /><inkscape:perspective
       sodipodi:type="inkscape:persp3d"
       inkscape:vp_x="-83.59038 : 418.83124 : 1"
       inkscape:vp_y="0 : 1000 : 0"
       inkscape:vp_z="187.78411 : 416.41985 : 1"
       inkscape:persp3d-origin="64.198102 : 426.5701 : 1"
       id="perspective372-6" /><linearGradient
       inkscape:collect="always"
       xlink:href="#linearGradient437"
       id="linearGradient438"
       x1="40.093037"
       y1="33.999722"
       x2="109.14595"
       y2="33.999722"
       gradientUnits="userSpaceOnUse" /><radialGradient
       inkscape:collect="always"
       xlink:href="#linearGradient2"
       id="radialGradient367-6"
       cx="64"
       cy="64"
       fx="64"
       fy="64"
       r="64"
       gradientUnits="userSpaceOnUse"
       gradientTransform="scale(4)" /></defs><g
     inkscape:groupmode="layer"
     id="layer3"
     inkscape:label="ADHAN"
     style="display:inline"><rect
       style="display:inline;fill:#ed3b02;fill-opacity:1;fill-rule:evenodd"
       id="rect1"
       width="512"
       height="512"
       x="0"
       y="0"
       inkscape:label="BackGrounSquare" /><circle
       style="display:inline;mix-blend-mode:normal;fill:url(#radialGradient367);fill-opacity:1;fill-rule:evenodd;stroke:none;stroke-width:5.52516"
       id="path359"
       cx="256"
       cy="256"
       r="256"
       inkscape:label="BackGrounCircle" /><text
       xml:space="preserve"
       style="font-style:normal;font-variant:normal;font-weight:bold;font-stretch:normal;font-size:83.3752px;font-family:'DSEG7 Classic';-inkscape-font-specification:'DSEG7 Classic, Bold';font-variant-ligatures:normal;font-variant-caps:normal;font-variant-numeric:normal;font-variant-east-asian:normal;display:inline;fill:#f2e086;fill-opacity:1;fill-rule:evenodd;stroke:none;stroke-width:3.90821;stroke-opacity:1"
       x="154.0721"
       y="177.68649"
       id="text369"
       transform="scale(0.97705238,1.0234866)"
       inkscape:label="Clock Digital"><tspan
         sodipodi:role="line"
         id="tspan369"
         x="154.0721"
         y="177.68649"
         style="font-style:normal;font-variant:normal;font-weight:bold;font-stretch:normal;font-size:83.3752px;font-family:'DSEG7 Classic';-inkscape-font-specification:'DSEG7 Classic, Bold';font-variant-ligatures:normal;font-variant-caps:normal;font-variant-numeric:normal;font-variant-east-asian:normal;fill:#f2e086;fill-opacity:1;stroke:none;stroke-width:3.90821;stroke-opacity:1">05:30</tspan></text><g
       id="g437"
       style="display:inline"
       inkscape:label="Clock Analog"
       transform="scale(4)"><path
         id="path432"
         style="display:inline;opacity:1;fill:#f2e086;fill-opacity:1;fill-rule:evenodd;stroke-width:1.22451"
         d="m 118.08636,74.089409 c 0,13.085099 -9.90238,23.1615 -23.692668,23.692669 -2.137129,0.08232 -1.882021,0.146816 -6.226727,0.01069 -0.01886,-4.182624 0.01893,-2.218481 0.02597,-5.467444 16.376185,0.643012 24.323235,-9.491233 23.339265,-19.99269 -1.092,-11.654433 -13.924661,-22.476117 -29.531278,-11.491106 -7.288472,-2.080022 -0.253405,-0.08341 -5.980047,-1.712588 4.344488,-5.328996 10.961245,-8.732198 18.372862,-8.732198 13.085093,0 23.692653,10.60757 23.692653,23.692669 z"
         sodipodi:nodetypes="ssccsccsss"
         inkscape:label="circle" /><g
         id="g436"
         inkscape:label="curve"><rect
           style="opacity:1;fill:#f2e086;fill-opacity:1;fill-rule:evenodd;stroke:none"
           id="rect435"
           width="6.3382483"
           height="16.741442"
           x="88.212944"
           y="61.085304"
           inkscape:label="dw" /><rect
           style="display:inline;opacity:1;fill:#f2e086;fill-opacity:1;fill-rule:evenodd;stroke:none"
           id="rect436"
           width="6.3382483"
           height="16.741442"
           x="15.696949"
           y="-132.29636"
           transform="rotate(120.6231)"
           inkscape:label="up" /></g></g><g
       id="g428"
       inkscape:label="Mekka"
       style="display:inline"
       transform="scale(4)"><g
         id="g426"
         inkscape:label="Right side"><path
           sodipodi:type="inkscape:box3dside"
           id="path415"
           style="display:inline;fill:#333333;fill-opacity:1;fill-rule:evenodd;stroke:none;stroke-linejoin:round"
           inkscape:box3dsidetype="14"
           d="M 85.976162,64.626345 55.280807,55.304672 V 115.2241 l 30.695355,-4.57988 z"
           points="55.280807,55.304672 55.280807,115.2241 85.976162,110.64422 85.976162,64.626345 "
           inkscape:label="right wall"
           transform="matrix(1,-0.02366618,0,1,-8.07e-4,1.6715063)" /><path
           d="m 55.2813,67.308543 -0.0013,9.694084 30.695,1.261189 v -5.82703 z"
           style="display:inline;fill:#958a53;fill-opacity:1;fill-rule:evenodd;stroke:none;stroke-width:0.999286;stroke-linejoin:round"
           id="path425"
           sodipodi:nodetypes="ccccc"
           inkscape:label="right line" /></g><g
         id="g427"
         transform="matrix(-1,0,0,1,110.58052,0)"
         inkscape:label="Left side"><path
           sodipodi:type="inkscape:box3dside"
           id="path426"
           style="display:inline;fill:#5e5e5e;fill-opacity:1;fill-rule:evenodd;stroke:none;stroke-linejoin:round"
           inkscape:box3dsidetype="14"
           d="m 55.280807,115.2241 30.695355,-4.57988 V 64.626345 L 55.280807,55.304672 Z"
           points="85.976162,110.64422 85.976162,64.626345 55.280807,55.304672 55.280807,115.2241 "
           inkscape:label="left wall"
           transform="matrix(1,-0.02366618,0,1,-8.07e-4,1.6715063)" /><path
           d="m 55.2813,67.308543 -0.0013,9.694084 30.695,1.261189 v -5.82703 z"
           style="display:inline;fill:#f2e086;fill-opacity:1;fill-rule:evenodd;stroke:none;stroke-width:0.999286;stroke-linejoin:round"
           id="path427"
           sodipodi:nodetypes="ccccc"
           inkscape:label="left line" /></g></g><g
       id="g429"
       style="display:inline;fill:#f2e086;fill-opacity:1"
       inkscape:label="Minber"
       transform="scale(4)"><path
         id="rect429"
         style="display:inline;opacity:1;fill:#f2e086;fill-opacity:1;fill-rule:evenodd;stroke-width:0.975689"
         d="m 33.003749,48.777283 c 0.198835,2.658195 0.370173,2.79992 0.571137,10.724747 -2.635854,0.814596 -4.785396,1.421149 -8.859914,2.359168 -0.09519,-4.293164 0.586989,-8.87431 1.113744,-12.998038 1.743993,-0.213516 2.768725,0.01293 7.175033,-0.08588 z"
         sodipodi:nodetypes="ccccc" /><g
         id="g430"><path
           id="path428"
           style="display:inline;opacity:1;fill:#f2e086;fill-opacity:1;fill-rule:evenodd"
           d="m 36.191514,34.34419 c -0.0053,3.921975 -2.411478,6.295397 -3.227911,8.455153 0.02172,2.015175 -0.136853,2.750417 -0.09232,3.785113 -2.702695,0.06597 -0.110998,0.01343 -3.470098,0.01883 0.188314,-22.22792 9.42e-4,-0.05857 0.132124,-22.194032 1.805639,2.436134 2.333633,3.197212 3.39456,4.314912 1.32113,1.612293 2.578466,2.881921 3.263643,5.620027 z"
           sodipodi:nodetypes="cccccccc" /><path
           id="path429"
           style="opacity:1;fill:#f2e086;fill-opacity:1;fill-rule:evenodd"
           d="m 22.902489,34.34419 c 0.0053,3.921975 2.411478,6.295397 3.227911,8.455153 -0.02172,2.015175 0.161528,2.757235 0.09232,3.785113 2.943766,-0.109192 0.110998,0.01343 3.470098,0.01883 -0.188314,-22.22792 -9.42e-4,-0.05857 -0.132124,-22.194032 -1.805639,2.436134 -2.333633,3.197212 -3.39456,4.314912 -1.32113,1.612293 -2.578466,2.881921 -3.263643,5.620027 z"
           sodipodi:nodetypes="cccccccc" /></g><path
         id="path430"
         style="display:inline;opacity:1;fill:#f2e086;fill-opacity:1;fill-rule:evenodd;stroke-width:1.55404"
         d="m 32.140911,19.403042 c 0,1.656854 -1.343146,3 -3,3 -1.656854,0 -3.622851,-1.732488 -3.622851,-1.732488 3.243098,1.155962 5.960256,-1.684276 4.703715,-4.753763 0,0 1.919136,1.829397 1.919136,3.486251 z"
         sodipodi:nodetypes="ssccs"
         inkscape:label="Moon" /></g></g><rect
     style="display:none;fill:#000000;fill-opacity:1;fill-rule:evenodd"
     id="rect1-5"
     width="512"
     height="512"
     x="0"
     y="0"
     inkscape:label="BackGrounSquare" /><circle
     style="display:none;mix-blend-mode:normal;fill:url(#radialGradient367-6);fill-opacity:1;fill-rule:evenodd;stroke:none;stroke-width:5.52516"
     id="path359-2"
     cx="256"
     cy="256"
     r="256"
     inkscape:label="BackGrounCircle" /><text
     xml:space="preserve"
     style="font-style:normal;font-variant:normal;font-weight:bold;font-stretch:normal;font-size:150.868px;font-family:'DSEG7 Classic';-inkscape-font-specification:'DSEG7 Classic, Bold';font-variant-ligatures:normal;font-variant-caps:normal;font-variant-numeric:normal;font-variant-east-asian:normal;display:none;fill:#00ff00;fill-opacity:1;fill-rule:evenodd;stroke:none;stroke-width:7.07193;stroke-opacity:1"
     x="0.70914322"
     y="262.49039"
     id="text1"
     transform="scale(0.97705237,1.0234866)"
     inkscape:label="Clock Digital-Text"><tspan
       sodipodi:role="line"
       id="tspan1"
       x="0.70914322"
       y="262.49039"
       style="font-style:normal;font-variant:normal;font-weight:bold;font-stretch:normal;font-size:150.868px;font-family:'DSEG7 Classic';-inkscape-font-specification:'DSEG7 Classic, Bold';font-variant-ligatures:normal;font-variant-caps:normal;font-variant-numeric:normal;font-variant-east-asian:normal;fill:#00ff00;fill-opacity:1;stroke:none;stroke-width:7.07193;stroke-opacity:1">08:38</tspan></text><g
     id="g65"
     inkscape:label="Clock Digital-Image"><path
       style="font-weight:bold;font-size:150.868px;font-family:'DSEG7 Classic';-inkscape-font-specification:'DSEG7 Classic, Bold';fill:#00ff00;fill-rule:evenodd;stroke-width:7.07193"
       d="m 501.59094,257.81345 -4.6769,4.67691 h -70.30449 l -4.67691,-4.67691 14.03073,-14.03073 h 51.59685 z"
       transform="scale(0.97705237,1.0234866)"
       id="path65" /><path
       style="font-weight:bold;font-size:150.868px;font-family:'DSEG7 Classic';-inkscape-font-specification:'DSEG7 Classic, Bold';fill:#00ff00;fill-rule:evenodd;stroke-width:7.07193"
       d="m 503.7031,118.41142 4.6769,4.67691 v 62.45935 h -8.75034 l -0.60347,-0.60347 -9.35382,-9.20295 v -43.29912 z"
       transform="scale(0.97705237,1.0234866)"
       id="path64" /><path
       style="font-weight:bold;font-size:150.868px;font-family:'DSEG7 Classic';-inkscape-font-specification:'DSEG7 Classic, Bold';fill:#00ff00;fill-rule:evenodd;stroke-width:7.07193"
       d="m 499.02619,189.31938 0.60347,-0.60347 H 508.38 v 62.30848 l -4.6769,4.67691 -14.03073,-14.03073 v -43.14824 z"
       transform="scale(0.97705237,1.0234866)"
       id="path63" /><path
       style="font-weight:bold;font-size:150.868px;font-family:'DSEG7 Classic';-inkscape-font-specification:'DSEG7 Classic, Bold';fill:#00ff00;fill-rule:evenodd;stroke-width:7.07193"
       d="m 421.93264,116.29927 4.67691,-4.67691 h 70.30449 l 4.6769,4.67691 -14.03072,14.03072 h -51.59685 z"
       transform="scale(0.97705237,1.0234866)"
       id="path62" /><path
       style="font-weight:bold;font-size:150.868px;font-family:'DSEG7 Classic';-inkscape-font-specification:'DSEG7 Classic, Bold';fill:#00ff00;fill-rule:evenodd;stroke-width:7.07193"
       d="m 419.82049,255.7013 -4.67691,-4.67691 v -62.45935 h 8.75035 l 0.60347,0.75434 9.35381,9.20295 v 43.14824 z"
       transform="scale(0.97705237,1.0234866)"
       id="path61" /><path
       style="font-weight:bold;font-size:150.868px;font-family:'DSEG7 Classic';-inkscape-font-specification:'DSEG7 Classic, Bold';fill:#00ff00;fill-rule:evenodd;stroke-width:7.07193"
       d="m 424.4974,184.79334 -0.60347,0.75434 h -8.75035 v -62.45935 l 4.67691,-4.67691 14.03072,14.03072 v 43.14825 z"
       transform="scale(0.97705237,1.0234866)"
       id="path60" /><path
       style="font-weight:bold;font-size:150.868px;font-family:'DSEG7 Classic';-inkscape-font-specification:'DSEG7 Classic, Bold';fill:#00ff00;fill-rule:evenodd;stroke-width:7.07193"
       d="m 487.25848,177.70254 9.50469,9.50469 -9.20295,9.20294 h -51.59685 l -9.35382,-9.35381 9.35382,-9.35382 z"
       transform="scale(0.97705237,1.0234866)"
       id="path59" /><path
       style="font-weight:bold;font-size:150.868px;font-family:'DSEG7 Classic';-inkscape-font-specification:'DSEG7 Classic, Bold';fill:#00ff00;fill-rule:evenodd;stroke-width:7.07193"
       d="m 378.48267,257.81345 -4.67691,4.67691 h -70.30449 l -4.6769,-4.67691 14.03072,-14.03073 h 51.59685 z"
       transform="scale(0.97705237,1.0234866)"
       id="path58" /><path
       style="font-weight:bold;font-size:150.868px;font-family:'DSEG7 Classic';-inkscape-font-specification:'DSEG7 Classic, Bold';fill:#00ff00;fill-rule:evenodd;stroke-width:7.07193"
       d="m 380.59482,118.41142 4.67691,4.67691 v 62.45935 h -8.75035 l -0.60347,-0.60347 -9.35381,-9.20295 v -43.29912 z"
       transform="scale(0.97705237,1.0234866)"
       id="path57" /><path
       style="font-weight:bold;font-size:150.868px;font-family:'DSEG7 Classic';-inkscape-font-specification:'DSEG7 Classic, Bold';fill:#00ff00;fill-rule:evenodd;stroke-width:7.07193"
       d="m 375.91791,189.31938 0.60347,-0.60347 h 8.75035 v 62.30848 l -4.67691,4.67691 -14.03072,-14.03073 v -43.14824 z"
       transform="scale(0.97705237,1.0234866)"
       id="path56" /><path
       style="font-weight:bold;font-size:150.868px;font-family:'DSEG7 Classic';-inkscape-font-specification:'DSEG7 Classic, Bold';fill:#00ff00;fill-rule:evenodd;stroke-width:7.07193"
       d="m 298.82437,116.29927 4.6769,-4.67691 h 70.30449 l 4.67691,4.67691 -14.03073,14.03072 h -51.59685 z"
       transform="scale(0.97705237,1.0234866)"
       id="path55" /><path
       style="font-weight:bold;font-size:150.868px;font-family:'DSEG7 Classic';-inkscape-font-specification:'DSEG7 Classic, Bold';fill:#00ff00;fill-rule:evenodd;stroke-width:7.07193"
       d="m 364.15021,177.70254 9.50468,9.50469 -9.20295,9.20294 h -51.59685 l -9.35382,-9.35381 9.35382,-9.35382 z"
       transform="scale(0.97705237,1.0234866)"
       id="path54" /><path
       style="font-weight:bold;font-size:150.868px;font-family:'DSEG7 Classic';-inkscape-font-specification:'DSEG7 Classic, Bold';fill:#00ff00;fill-rule:evenodd;stroke-width:7.07193"
       d="m 270.61193,216.47562 q 0.75434,1.81041 0.75434,3.62083 0,1.81042 -0.75434,3.62083 -0.75434,1.81042 -1.96129,3.01736 -1.20694,1.20695 -3.01736,1.96129 -1.81041,0.75434 -3.62083,0.75434 -1.81041,0 -3.62083,-0.75434 -1.81042,-0.75434 -3.01736,-1.96129 -1.20694,-1.20694 -1.96128,-3.01736 -0.75434,-1.81041 -0.75434,-3.62083 0,-1.81042 0.75434,-3.62083 0.75434,-1.65955 1.96128,-2.86649 1.50868,-1.50868 3.01736,-2.11216 1.35781,-0.60347 3.62083,-0.60347 2.26302,0 3.62083,0.60347 1.65955,0.60348 3.01736,2.11216 1.20695,1.20694 1.96129,2.86649 z"
       transform="scale(0.97705237,1.0234866)"
       id="path53" /><path
       style="font-weight:bold;font-size:150.868px;font-family:'DSEG7 Classic';-inkscape-font-specification:'DSEG7 Classic, Bold';fill:#00ff00;fill-rule:evenodd;stroke-width:7.07193"
       d="m 270.61193,154.318 q 0.75434,1.81042 0.75434,3.62084 0,1.81041 -0.75434,3.62083 -0.75434,1.81041 -1.96129,3.01736 -1.20694,1.20694 -3.01736,1.96128 -1.81041,0.75434 -3.62083,0.75434 -1.81041,0 -3.62083,-0.75434 -1.81042,-0.75434 -3.01736,-1.96128 -1.20694,-1.20695 -1.96128,-3.01736 -0.75434,-1.81042 -0.75434,-3.62083 0,-1.81042 0.75434,-3.62084 0.75434,-1.65954 1.96128,-2.86649 1.50868,-1.35781 3.01736,-2.11215 1.35781,-0.60347 3.62083,-0.60347 2.26302,0 3.62083,0.60347 1.65955,0.75434 3.01736,2.11215 1.20695,1.20695 1.96129,2.86649 z"
       transform="scale(0.97705237,1.0234866)"
       id="path52" /><path
       style="font-weight:bold;font-size:150.868px;font-family:'DSEG7 Classic';-inkscape-font-specification:'DSEG7 Classic, Bold';fill:#00ff00;fill-rule:evenodd;stroke-width:7.07193"
       d="m 225.20066,257.81345 -4.67691,4.67691 h -70.30448 l -4.67691,-4.67691 14.03072,-14.03073 h 51.59686 z"
       transform="scale(0.97705237,1.0234866)"
       id="path51" /><path
       style="font-weight:bold;font-size:150.868px;font-family:'DSEG7 Classic';-inkscape-font-specification:'DSEG7 Classic, Bold';fill:#00ff00;fill-rule:evenodd;stroke-width:7.07193"
       d="m 227.31281,118.41142 4.67691,4.67691 v 62.45935 h -8.75034 l -0.60347,-0.60347 -9.35382,-9.20295 v -43.29912 z"
       transform="scale(0.97705237,1.0234866)"
       id="path50" /><path
       style="font-weight:bold;font-size:150.868px;font-family:'DSEG7 Classic';-inkscape-font-specification:'DSEG7 Classic, Bold';fill:#00ff00;fill-rule:evenodd;stroke-width:7.07193"
       d="m 222.63591,189.31938 0.60347,-0.60347 h 8.75034 v 62.30848 l -4.67691,4.67691 -14.03072,-14.03073 v -43.14824 z"
       transform="scale(0.97705237,1.0234866)"
       id="path49" /><path
       style="font-weight:bold;font-size:150.868px;font-family:'DSEG7 Classic';-inkscape-font-specification:'DSEG7 Classic, Bold';fill:#00ff00;fill-rule:evenodd;stroke-width:7.07193"
       d="m 145.54236,116.29927 4.67691,-4.67691 h 70.30448 l 4.67691,4.67691 -14.03072,14.03072 h -51.59686 z"
       transform="scale(0.97705237,1.0234866)"
       id="path48" /><path
       style="font-weight:bold;font-size:150.868px;font-family:'DSEG7 Classic';-inkscape-font-specification:'DSEG7 Classic, Bold';fill:#00ff00;fill-rule:evenodd;stroke-width:7.07193"
       d="m 143.43021,255.7013 -4.67691,-4.67691 v -62.45935 h 8.75034 l 0.60348,0.75434 9.35381,9.20295 v 43.14824 z"
       transform="scale(0.97705237,1.0234866)"
       id="path47" /><path
       style="font-weight:bold;font-size:150.868px;font-family:'DSEG7 Classic';-inkscape-font-specification:'DSEG7 Classic, Bold';fill:#00ff00;fill-rule:evenodd;stroke-width:7.07193"
       d="m 148.10712,184.79334 -0.60348,0.75434 h -8.75034 v -62.45935 l 4.67691,-4.67691 14.03072,14.03072 v 43.14825 z"
       transform="scale(0.97705237,1.0234866)"
       id="path46" /><path
       style="font-weight:bold;font-size:150.868px;font-family:'DSEG7 Classic';-inkscape-font-specification:'DSEG7 Classic, Bold';fill:#00ff00;fill-rule:evenodd;stroke-width:7.07193"
       d="m 210.8682,177.70254 9.50469,9.50469 -9.20295,9.20294 h -51.59686 l -9.35381,-9.35381 9.35381,-9.35382 z"
       transform="scale(0.97705237,1.0234866)"
       id="path37" /><path
       style="font-weight:bold;font-size:150.868px;font-family:'DSEG7 Classic';-inkscape-font-specification:'DSEG7 Classic, Bold';fill:#00ff00;fill-rule:evenodd;stroke-width:7.07193"
       d="m 102.09238,257.81345 -4.67691,4.67691 H 27.110984 L 22.434076,257.81345 36.4648,243.78272 h 51.596854 z"
       transform="scale(0.97705237,1.0234866)"
       id="path31" /><path
       style="font-weight:bold;font-size:150.868px;font-family:'DSEG7 Classic';-inkscape-font-specification:'DSEG7 Classic, Bold';fill:#00ff00;fill-rule:evenodd;stroke-width:7.07193"
       d="m 104.20453,118.41142 4.67691,4.67691 v 62.45935 h -8.75035 l -0.603468,-0.60347 -9.353816,-9.20295 v -43.29912 z"
       transform="scale(0.97705237,1.0234866)"
       id="path19" /><path
       style="font-weight:bold;font-size:150.868px;font-family:'DSEG7 Classic';-inkscape-font-specification:'DSEG7 Classic, Bold';fill:#00ff00;fill-rule:evenodd;stroke-width:7.07193"
       d="m 99.527622,189.31938 0.603468,-0.60347 h 8.75035 v 62.30848 l -4.67691,4.67691 -14.030724,-14.03073 v -43.14824 z"
       transform="scale(0.97705237,1.0234866)"
       id="path18" /><path
       style="font-weight:bold;font-size:150.868px;font-family:'DSEG7 Classic';-inkscape-font-specification:'DSEG7 Classic, Bold';fill:#00ff00;fill-rule:evenodd;stroke-width:7.07193"
       d="m 22.434076,116.29927 4.676908,-4.67691 H 97.41547 l 4.67691,4.67691 -14.030726,14.03072 H 36.4648 Z"
       transform="scale(0.97705237,1.0234866)"
       id="path4" /><path
       style="font-weight:bold;font-size:150.868px;font-family:'DSEG7 Classic';-inkscape-font-specification:'DSEG7 Classic, Bold';fill:#00ff00;fill-rule:evenodd;stroke-width:7.07193"
       d="m 20.321924,255.7013 -4.676908,-4.67691 v -62.45935 h 8.750344 l 0.603472,0.75434 9.353816,9.20295 v 43.14824 z"
       transform="scale(0.97705237,1.0234866)"
       id="path3" /><path
       style="font-weight:bold;font-size:150.868px;font-family:'DSEG7 Classic';-inkscape-font-specification:'DSEG7 Classic, Bold';fill:#00ff00;fill-rule:evenodd;stroke-width:7.07193"
       d="m 24.998832,184.79334 -0.603472,0.75434 h -8.750344 v -62.45935 l 4.676908,-4.67691 14.030724,14.03072 v 43.14825 z"
       transform="scale(0.97705237,1.0234866)"
       id="text1-53" /></g><g
     id="g46"
     transform="translate(-2.6375523,-69.50669)"
     inkscape:label="ONLY CLOCK"><g
       id="g25"
       inkscape:label="CLOCK"
       style="fill:#00ffff;fill-opacity:1"
       transform="matrix(0.48846777,0,0,0.48846777,257.14828,252.2131)"><path
         style="font-weight:bold;font-size:127.122px;font-family:'DSEG7 Classic';-inkscape-font-specification:'DSEG7 Classic, Bold';fill:#00ffff;fill-opacity:1;fill-rule:evenodd;stroke-width:5.95886"
         d="m 500.6354,346.68003 0.50849,-0.50849 h 7.37307 v 52.50139 l -3.94078,3.94078 -11.82235,-11.82235 v -36.35689 z"
         transform="scale(0.97705246,1.0234865)"
         id="path25" /><path
         style="font-weight:bold;font-size:127.122px;font-family:'DSEG7 Classic';-inkscape-font-specification:'DSEG7 Classic, Bold';fill:#00ffff;fill-opacity:1;fill-rule:evenodd;stroke-width:5.95886"
         d="m 435.67605,285.15298 3.94079,-3.94078 h 59.23885 l 3.94078,3.94078 -11.82234,11.82234 H 447.4984 Z"
         transform="scale(0.97705246,1.0234865)"
         id="path24" /><path
         style="font-weight:bold;font-size:127.122px;font-family:'DSEG7 Classic';-inkscape-font-specification:'DSEG7 Classic, Bold';fill:#00ffff;fill-opacity:1;fill-rule:evenodd;stroke-width:5.95886"
         d="m 433.89635,402.61371 -3.94079,-3.94078 v -52.62851 h 7.37308 l 0.50849,0.63561 7.88156,7.75444 v 36.35689 z"
         transform="scale(0.97705246,1.0234865)"
         id="path23" /><path
         style="font-weight:bold;font-size:127.122px;font-family:'DSEG7 Classic';-inkscape-font-specification:'DSEG7 Classic, Bold';fill:#00ffff;fill-opacity:1;fill-rule:evenodd;stroke-width:5.95886"
         d="m 437.83713,342.86637 -0.50849,0.63561 h -7.37308 v -52.62851 l 3.94079,-3.94078 11.82234,11.82234 v 36.3569 z"
         transform="scale(0.97705246,1.0234865)"
         id="path22" /><path
         style="font-weight:bold;font-size:127.122px;font-family:'DSEG7 Classic';-inkscape-font-specification:'DSEG7 Classic, Bold';fill:#00ffff;fill-opacity:1;fill-rule:evenodd;stroke-width:5.95886"
         d="m 490.71988,336.89163 8.00869,8.00869 -7.75444,7.75444 H 447.4984 l -7.88156,-7.88156 7.88156,-7.88157 z"
         transform="scale(0.97705246,1.0234865)"
         id="path21" /><path
         style="font-weight:bold;font-size:127.122px;font-family:'DSEG7 Classic';-inkscape-font-specification:'DSEG7 Classic, Bold';fill:#00ffff;fill-opacity:1;fill-rule:evenodd;stroke-width:5.95886"
         d="m 399.0649,404.39342 -3.94078,3.94078 h -59.23885 l -3.94078,-3.94078 11.82234,-11.82235 h 43.47573 z"
         transform="scale(0.97705246,1.0234865)"
         id="path20" /><path
         style="font-weight:bold;font-size:127.122px;font-family:'DSEG7 Classic';-inkscape-font-specification:'DSEG7 Classic, Bold';fill:#00ffff;fill-opacity:1;fill-rule:evenodd;stroke-width:5.95886"
         d="m 331.94449,285.15298 3.94078,-3.94078 h 59.23885 l 3.94078,3.94078 -11.82234,11.82234 h -43.47573 z"
         transform="scale(0.97705246,1.0234865)"
         id="path17" /><path
         style="font-weight:bold;font-size:127.122px;font-family:'DSEG7 Classic';-inkscape-font-specification:'DSEG7 Classic, Bold';fill:#00ffff;fill-opacity:1;fill-rule:evenodd;stroke-width:5.95886"
         d="m 330.16478,402.61371 -3.94078,-3.94078 v -52.62851 h 7.37307 l 0.50849,0.63561 7.88157,7.75444 v 36.35689 z"
         transform="scale(0.97705246,1.0234865)"
         id="path16" /><path
         style="font-weight:bold;font-size:127.122px;font-family:'DSEG7 Classic';-inkscape-font-specification:'DSEG7 Classic, Bold';fill:#00ffff;fill-opacity:1;fill-rule:evenodd;stroke-width:5.95886"
         d="m 334.10556,342.86637 -0.50849,0.63561 H 326.224 v -52.62851 l 3.94078,-3.94078 11.82235,11.82234 v 36.3569 z"
         transform="scale(0.97705246,1.0234865)"
         id="path15" /><path
         style="font-weight:bold;font-size:127.122px;font-family:'DSEG7 Classic';-inkscape-font-specification:'DSEG7 Classic, Bold';fill:#00ffff;fill-opacity:1;fill-rule:evenodd;stroke-width:5.95886"
         d="m 295.33337,404.39342 -3.94078,3.94078 h -59.23886 l -3.94078,-3.94078 11.82235,-11.82235 h 43.47572 z"
         transform="scale(0.97705246,1.0234865)"
         id="path14" /><path
         style="font-weight:bold;font-size:127.122px;font-family:'DSEG7 Classic';-inkscape-font-specification:'DSEG7 Classic, Bold';fill:#00ffff;fill-opacity:1;fill-rule:evenodd;stroke-width:5.95886"
         d="m 297.11308,286.93269 3.94078,3.94078 v 52.62851 h -7.37308 l -0.50849,-0.50849 -7.88156,-7.75444 v -36.48402 z"
         transform="scale(0.97705246,1.0234865)"
         id="path13" /><path
         style="font-weight:bold;font-size:127.122px;font-family:'DSEG7 Classic';-inkscape-font-specification:'DSEG7 Classic, Bold';fill:#00ffff;fill-opacity:1;fill-rule:evenodd;stroke-width:5.95886"
         d="m 293.17229,346.68003 0.50849,-0.50849 h 7.37308 v 52.50139 l -3.94078,3.94078 -11.82235,-11.82235 v -36.35689 z"
         transform="scale(0.97705246,1.0234865)"
         id="path12" /><path
         style="font-weight:bold;font-size:127.122px;font-family:'DSEG7 Classic';-inkscape-font-specification:'DSEG7 Classic, Bold';fill:#00ffff;fill-opacity:1;fill-rule:evenodd;stroke-width:5.95886"
         d="m 228.21295,285.15298 3.94078,-3.94078 h 59.23886 l 3.94078,3.94078 -11.82235,11.82234 H 240.0353 Z"
         transform="scale(0.97705246,1.0234865)"
         id="path11" /><path
         style="font-weight:bold;font-size:127.122px;font-family:'DSEG7 Classic';-inkscape-font-specification:'DSEG7 Classic, Bold';fill:#00ffff;fill-opacity:1;fill-rule:evenodd;stroke-width:5.95886"
         d="m 226.43324,402.61371 -3.94078,-3.94078 v -52.62851 h 7.37308 l 0.50848,0.63561 7.88157,7.75444 v 36.35689 z"
         transform="scale(0.97705246,1.0234865)"
         id="path10" /><path
         style="font-weight:bold;font-size:127.122px;font-family:'DSEG7 Classic';-inkscape-font-specification:'DSEG7 Classic, Bold';fill:#00ffff;fill-opacity:1;fill-rule:evenodd;stroke-width:5.95886"
         d="m 230.37402,342.86637 -0.50848,0.63561 h -7.37308 v -52.62851 l 3.94078,-3.94078 11.82235,11.82234 v 36.3569 z"
         transform="scale(0.97705246,1.0234865)"
         id="path9" /><path
         style="font-weight:bold;font-size:127.122px;font-family:'DSEG7 Classic';-inkscape-font-specification:'DSEG7 Classic, Bold';fill:#00ffff;fill-opacity:1;fill-rule:evenodd;stroke-width:5.95886"
         d="m 191.60182,404.39342 -3.94079,3.94078 h -59.23885 l -3.94078,-3.94078 11.82234,-11.82235 h 43.47573 z"
         transform="scale(0.97705246,1.0234865)"
         id="path8" /><path
         style="font-weight:bold;font-size:127.122px;font-family:'DSEG7 Classic';-inkscape-font-specification:'DSEG7 Classic, Bold';fill:#00ffff;fill-opacity:1;fill-rule:evenodd;stroke-width:5.95886"
         d="m 122.70169,402.61371 -3.94078,-3.94078 v -52.62851 h 7.37307 l 0.50849,0.63561 7.88157,7.75444 v 36.35689 z"
         transform="scale(0.97705246,1.0234865)"
         id="path7" /><path
         style="font-weight:bold;font-size:127.122px;font-family:'DSEG7 Classic';-inkscape-font-specification:'DSEG7 Classic, Bold';fill:#00ffff;fill-opacity:1;fill-rule:evenodd;stroke-width:5.95886"
         d="m 126.64247,342.86637 -0.50849,0.63561 h -7.37307 v -52.62851 l 3.94078,-3.94078 11.82235,11.82234 v 36.3569 z"
         transform="scale(0.97705246,1.0234865)"
         id="path6" /><path
         style="font-weight:bold;font-size:127.122px;font-family:'DSEG7 Classic';-inkscape-font-specification:'DSEG7 Classic, Bold';fill:#00ffff;fill-opacity:1;fill-rule:evenodd;stroke-width:5.95886"
         d="m 87.870263,404.39342 -3.940782,3.94078 H 24.690629 l -3.940783,-3.94078 11.822347,-11.82235 h 43.475724 z"
         transform="scale(0.97705246,1.0234865)"
         id="path5" /><path
         style="font-weight:bold;font-size:127.122px;font-family:'DSEG7 Classic';-inkscape-font-specification:'DSEG7 Classic, Bold';fill:#00ffff;fill-opacity:1;fill-rule:evenodd;stroke-width:5.95886"
         d="m 20.749846,285.15298 3.940783,-3.94078 h 59.238852 l 3.940782,3.94078 -11.822346,11.82234 H 32.572193 Z"
         transform="scale(0.97705246,1.0234865)"
         id="path2" /><path
         style="font-weight:bold;font-size:127.122px;font-family:'DSEG7 Classic';-inkscape-font-specification:'DSEG7 Classic, Bold';fill:#00ffff;fill-opacity:1;fill-rule:evenodd;stroke-width:5.95886"
         d="m 18.970138,402.61371 -3.940782,-3.94078 v -52.62851 h 7.373076 l 0.508489,0.63561 7.881564,7.75444 v 36.35689 z"
         transform="scale(0.97705246,1.0234865)"
         id="path1" /><path
         style="font-weight:bold;font-size:127.122px;font-family:'DSEG7 Classic';-inkscape-font-specification:'DSEG7 Classic, Bold';fill:#00ffff;fill-opacity:1;fill-rule:evenodd;stroke-width:5.95886"
         d="m 22.910921,342.86637 -0.508489,0.63561 h -7.373076 v -52.62851 l 3.940782,-3.94078 11.822347,11.82234 v 36.3569 z"
         transform="scale(0.97705246,1.0234865)"
         id="text1-5" /></g><g
       id="g45"
       transform="matrix(0.41038039,0,0,0.41038039,3.8506851,385.25811)"
       style="fill:#00ffff;fill-opacity:1"
       inkscape:label="ONLY"><path
         style="font-weight:bold;font-size:150.868px;font-family:'DSEG7 Classic';-inkscape-font-specification:'DSEG7 Classic, Bold';fill:#00ffff;fill-opacity:1;fill-rule:evenodd;stroke-width:7.07193"
         d="m 489.64573,164.59563 -4.67691,4.67691 h -70.30448 l -4.67691,-4.67691 14.03072,-14.03072 h 51.59686 z"
         transform="scale(0.97705237,1.0234866)"
         id="path45" /><path
         style="font-weight:bold;font-size:150.868px;font-family:'DSEG7 Classic';-inkscape-font-specification:'DSEG7 Classic, Bold';fill:#00ffff;fill-opacity:1;fill-rule:evenodd;stroke-width:7.07193"
         d="m 491.75788,25.193601 4.67691,4.676908 v 62.45935 h -8.75034 l -0.60347,-0.603472 -9.35382,-9.202948 V 39.224324 Z"
         transform="scale(0.97705237,1.0234866)"
         id="path44" /><path
         style="font-weight:bold;font-size:150.868px;font-family:'DSEG7 Classic';-inkscape-font-specification:'DSEG7 Classic, Bold';fill:#00ffff;fill-opacity:1;fill-rule:evenodd;stroke-width:7.07193"
         d="m 487.08098,96.101559 0.60347,-0.603472 h 8.75034 v 62.308483 l -4.67691,4.67691 -14.03072,-14.03073 v -43.14824 z"
         transform="scale(0.97705237,1.0234866)"
         id="path43" /><path
         style="font-weight:bold;font-size:150.868px;font-family:'DSEG7 Classic';-inkscape-font-specification:'DSEG7 Classic, Bold';fill:#00ffff;fill-opacity:1;fill-rule:evenodd;stroke-width:7.07193"
         d="m 412.55219,91.575519 -0.60348,0.75434 h -8.75034 v -62.45935 l 4.67691,-4.676908 14.03072,14.030723 v 43.148247 z"
         transform="scale(0.97705237,1.0234866)"
         id="path42" /><path
         style="font-weight:bold;font-size:150.868px;font-family:'DSEG7 Classic';-inkscape-font-specification:'DSEG7 Classic, Bold';fill:#00ffff;fill-opacity:1;fill-rule:evenodd;stroke-width:7.07193"
         d="m 475.31327,84.484723 9.50469,9.504684 -9.20295,9.202943 h -51.59686 l -9.35381,-9.353811 9.35381,-9.353816 z"
         transform="scale(0.97705237,1.0234866)"
         id="path41" /><path
         style="font-weight:bold;font-size:150.868px;font-family:'DSEG7 Classic';-inkscape-font-specification:'DSEG7 Classic, Bold';fill:#00ffff;fill-opacity:1;fill-rule:evenodd;stroke-width:7.07193"
         d="m 366.53744,164.59563 -4.67691,4.67691 h -70.30448 l -4.67691,-4.67691 14.03072,-14.03072 h 51.59686 z"
         transform="scale(0.97705237,1.0234866)"
         id="path40" /><path
         style="font-weight:bold;font-size:150.868px;font-family:'DSEG7 Classic';-inkscape-font-specification:'DSEG7 Classic, Bold';fill:#00ffff;fill-opacity:1;fill-rule:evenodd;stroke-width:7.07193"
         d="m 284.76699,162.48348 -4.67691,-4.67691 V 95.347219 h 8.75034 l 0.60347,0.75434 9.35382,9.202951 v 43.14824 z"
         transform="scale(0.97705237,1.0234866)"
         id="path39" /><path
         style="font-weight:bold;font-size:150.868px;font-family:'DSEG7 Classic';-inkscape-font-specification:'DSEG7 Classic, Bold';fill:#00ffff;fill-opacity:1;fill-rule:evenodd;stroke-width:7.07193"
         d="m 289.44389,91.575519 -0.60347,0.75434 h -8.75034 v -62.45935 l 4.67691,-4.676908 14.03072,14.030723 v 43.148247 z"
         transform="scale(0.97705237,1.0234866)"
         id="path38" /><path
         style="font-weight:bold;font-size:150.868px;font-family:'DSEG7 Classic';-inkscape-font-specification:'DSEG7 Classic, Bold';fill:#00ffff;fill-opacity:1;fill-rule:evenodd;stroke-width:7.07193"
         d="m 245.54131,25.193601 4.67691,4.676908 v 62.45935 h -8.75035 l -0.60347,-0.603472 -9.35382,-9.202948 V 39.224324 Z"
         transform="scale(0.97705237,1.0234866)"
         id="path36" /><path
         style="font-weight:bold;font-size:150.868px;font-family:'DSEG7 Classic';-inkscape-font-specification:'DSEG7 Classic, Bold';fill:#00ffff;fill-opacity:1;fill-rule:evenodd;stroke-width:7.07193"
         d="m 240.8644,96.101559 0.60347,-0.603472 h 8.75035 v 62.308483 l -4.67691,4.67691 -14.03073,-14.03073 v -43.14824 z"
         transform="scale(0.97705237,1.0234866)"
         id="path35" /><path
         style="font-weight:bold;font-size:150.868px;font-family:'DSEG7 Classic';-inkscape-font-specification:'DSEG7 Classic, Bold';fill:#00ffff;fill-opacity:1;fill-rule:evenodd;stroke-width:7.07193"
         d="m 163.77085,23.081449 4.67691,-4.676908 h 70.30449 l 4.67691,4.676908 -14.03073,14.030724 h -51.59685 z"
         transform="scale(0.97705237,1.0234866)"
         id="path34" /><path
         style="font-weight:bold;font-size:150.868px;font-family:'DSEG7 Classic';-inkscape-font-specification:'DSEG7 Classic, Bold';fill:#00ffff;fill-opacity:1;fill-rule:evenodd;stroke-width:7.07193"
         d="m 161.6587,162.48348 -4.67691,-4.67691 V 95.347219 h 8.75035 l 0.60347,0.75434 9.35382,9.202951 v 43.14824 z"
         transform="scale(0.97705237,1.0234866)"
         id="path33" /><path
         style="font-weight:bold;font-size:150.868px;font-family:'DSEG7 Classic';-inkscape-font-specification:'DSEG7 Classic, Bold';fill:#00ffff;fill-opacity:1;fill-rule:evenodd;stroke-width:7.07193"
         d="m 166.33561,91.575519 -0.60347,0.75434 h -8.75035 v -62.45935 l 4.67691,-4.676908 14.03073,14.030723 v 43.148247 z"
         transform="scale(0.97705237,1.0234866)"
         id="path32" /><path
         style="font-weight:bold;font-size:150.868px;font-family:'DSEG7 Classic';-inkscape-font-specification:'DSEG7 Classic, Bold';fill:#00ffff;fill-opacity:1;fill-rule:evenodd;stroke-width:7.07193"
         d="m 120.32087,164.59563 -4.67691,4.67691 H 45.339478 l -4.676908,-4.67691 14.030723,-14.03072 h 51.596857 z"
         transform="scale(0.97705237,1.0234866)"
         id="path30" /><path
         style="font-weight:bold;font-size:150.868px;font-family:'DSEG7 Classic';-inkscape-font-specification:'DSEG7 Classic, Bold';fill:#00ffff;fill-opacity:1;fill-rule:evenodd;stroke-width:7.07193"
         d="m 122.43302,25.193601 4.67691,4.676908 v 62.45935 h -8.75034 l -0.60347,-0.603472 -9.35382,-9.202948 V 39.224324 Z"
         transform="scale(0.97705237,1.0234866)"
         id="path29" /><path
         style="font-weight:bold;font-size:150.868px;font-family:'DSEG7 Classic';-inkscape-font-specification:'DSEG7 Classic, Bold';fill:#00ffff;fill-opacity:1;fill-rule:evenodd;stroke-width:7.07193"
         d="m 117.75612,96.101559 0.60347,-0.603472 h 8.75034 v 62.308483 l -4.67691,4.67691 -14.03072,-14.03073 v -43.14824 z"
         transform="scale(0.97705237,1.0234866)"
         id="path28" /><path
         style="font-weight:bold;font-size:150.868px;font-family:'DSEG7 Classic';-inkscape-font-specification:'DSEG7 Classic, Bold';fill:#00ffff;fill-opacity:1;fill-rule:evenodd;stroke-width:7.07193"
         d="m 40.66257,23.081449 4.676908,-4.676908 h 70.304482 l 4.67691,4.676908 -14.03072,14.030724 H 54.693293 Z"
         transform="scale(0.97705237,1.0234866)"
         id="path27" /><path
         style="font-weight:bold;font-size:150.868px;font-family:'DSEG7 Classic';-inkscape-font-specification:'DSEG7 Classic, Bold';fill:#00ffff;fill-opacity:1;fill-rule:evenodd;stroke-width:7.07193"
         d="M 38.550418,162.48348 33.87351,157.80657 V 95.347219 h 8.750344 l 0.603472,0.75434 9.353815,9.202951 v 43.14824 z"
         transform="scale(0.97705237,1.0234866)"
         id="path26" /><path
         style="font-weight:bold;font-size:150.868px;font-family:'DSEG7 Classic';-inkscape-font-specification:'DSEG7 Classic, Bold';fill:#00ffff;fill-opacity:1;fill-rule:evenodd;stroke-width:7.07193"
         d="m 43.227326,91.575519 -0.603472,0.75434 H 33.87351 v -62.45935 l 4.676908,-4.676908 14.030723,14.030723 v 43.148247 z"
         transform="scale(0.97705237,1.0234866)"
         id="text1-9" /></g></g></svg>
