<?xml version="1.0" encoding="UTF-8" standalone="no"?>
<!-- Created with Inkscape (http://www.inkscape.org/) -->

<svg
   width="512"
   height="512"
   viewBox="0 0 512 511.99996"
   version="1.1"
   id="svg1"
   xml:space="preserve"
   sodipodi:docname="icon.svg"
   inkscape:version="1.4 (e7c3feb100, 2024-10-09)"
   inkscape:export-filename="icon.png"
   inkscape:export-xdpi="96"
   inkscape:export-ydpi="96"
   xmlns:inkscape="http://www.inkscape.org/namespaces/inkscape"
   xmlns:sodipodi="http://sodipodi.sourceforge.net/DTD/sodipodi-0.dtd"
   xmlns:xlink="http://www.w3.org/1999/xlink"
   xmlns="http://www.w3.org/2000/svg"
   xmlns:svg="http://www.w3.org/2000/svg"><sodipodi:namedview
     id="namedview1"
     pagecolor="#505050"
     bordercolor="#ffffff"
     borderopacity="1"
     inkscape:showpageshadow="0"
     inkscape:pageopacity="0"
     inkscape:pagecheckerboard="1"
     inkscape:deskcolor="#505050"
     inkscape:document-units="px"
     inkscape:zoom="1.0214844"
     inkscape:cx="284.39005"
     inkscape:cy="257.95793"
     inkscape:window-width="1920"
     inkscape:window-height="1002"
     inkscape:window-x="0"
     inkscape:window-y="0"
     inkscape:window-maximized="1"
     inkscape:current-layer="svg1"
     showguides="true"
     inkscape:export-bgcolor="#ffffff00" /><defs
     id="defs1"><linearGradient
       id="linearGradient437"
       inkscape:collect="always"><stop
         style="stop-color:#000000;stop-opacity:1;"
         offset="0"
         id="stop437" /><stop
         style="stop-color:#000000;stop-opacity:0;"
         offset="1"
         id="stop438" /></linearGradient><inkscape:perspective
       sodipodi:type="inkscape:persp3d"
       inkscape:vp_x="-83.78848 : 418.92778 : 1"
       inkscape:vp_y="0 : 1000 : 0"
       inkscape:vp_z="187.58601 : 416.51639 : 1"
       inkscape:persp3d-origin="64 : 426.66663 : 1"
       id="perspective372" /><linearGradient
       id="linearGradient366"
       inkscape:collect="always"><stop
         style="stop-color:#ffdd8c;stop-opacity:1;"
         offset="0"
         id="stop367" /><stop
         style="stop-color:#ed3900;stop-opacity:1;"
         offset="1"
         id="stop366" /></linearGradient><linearGradient
       id="swatch364"><stop
         style="stop-color:#000000;stop-opacity:1;"
         offset="0"
         id="stop364" /></linearGradient><radialGradient
       inkscape:collect="always"
       xlink:href="#linearGradient366"
       id="radialGradient367"
       cx="64"
       cy="64"
       fx="64"
       fy="64"
       r="64"
       gradientUnits="userSpaceOnUse"
       gradientTransform="scale(4)" /><inkscape:perspective
       sodipodi:type="inkscape:persp3d"
       inkscape:vp_x="-83.59038 : 418.83124 : 1"
       inkscape:vp_y="0 : 1000 : 0"
       inkscape:vp_z="187.78411 : 416.41985 : 1"
       inkscape:persp3d-origin="64.198102 : 426.5701 : 1"
       id="perspective372-6" /><linearGradient
       inkscape:collect="always"
       xlink:href="#linearGradient437"
       id="linearGradient438"
       x1="40.093037"
       y1="33.999722"
       x2="109.14595"
       y2="33.999722"
       gradientUnits="userSpaceOnUse" /></defs><rect
     style="display:inline;fill:#ed3b02;fill-opacity:1;fill-rule:evenodd"
     id="rect1"
     width="512"
     height="512"
     x="0"
     y="0" /><g
     inkscape:groupmode="layer"
     id="layer3"
     inkscape:label="ADHAN"
     style="display:inline"><circle
       style="display:inline;mix-blend-mode:normal;fill:url(#radialGradient367);fill-opacity:1;fill-rule:evenodd;stroke:none;stroke-width:5.52516"
       id="path359"
       cx="256"
       cy="256"
       r="256"
       inkscape:label="BackGround" /><text
       xml:space="preserve"
       style="font-style:normal;font-variant:normal;font-weight:bold;font-stretch:normal;font-size:83.3752px;font-family:'DSEG7 Classic';-inkscape-font-specification:'DSEG7 Classic, Bold';font-variant-ligatures:normal;font-variant-caps:normal;font-variant-numeric:normal;font-variant-east-asian:normal;display:inline;fill:#f2e086;fill-opacity:1;fill-rule:evenodd;stroke:none;stroke-width:3.90821;stroke-opacity:1"
       x="154.0721"
       y="177.68649"
       id="text369"
       transform="scale(0.97705238,1.0234866)"
       inkscape:label="Clock Digital"><tspan
         sodipodi:role="line"
         id="tspan369"
         x="154.0721"
         y="177.68649"
         style="font-style:normal;font-variant:normal;font-weight:bold;font-stretch:normal;font-size:83.3752px;font-family:'DSEG7 Classic';-inkscape-font-specification:'DSEG7 Classic, Bold';font-variant-ligatures:normal;font-variant-caps:normal;font-variant-numeric:normal;font-variant-east-asian:normal;fill:#f2e086;fill-opacity:1;stroke:none;stroke-width:3.90821;stroke-opacity:1">05:30</tspan></text><g
       id="g437"
       style="display:inline"
       inkscape:label="Clock Analog"
       transform="scale(4)"><path
         id="path432"
         style="display:inline;opacity:1;fill:#f2e086;fill-opacity:1;fill-rule:evenodd;stroke-width:1.22451"
         d="m 118.08636,74.089409 c 0,13.085099 -9.90238,23.1615 -23.692668,23.692669 -2.137129,0.08232 -1.882021,0.146816 -6.226727,0.01069 -0.01886,-4.182624 0.01893,-2.218481 0.02597,-5.467444 16.376185,0.643012 24.323235,-9.491233 23.339265,-19.99269 -1.092,-11.654433 -13.924661,-22.476117 -29.531278,-11.491106 -7.288472,-2.080022 -0.253405,-0.08341 -5.980047,-1.712588 4.344488,-5.328996 10.961245,-8.732198 18.372862,-8.732198 13.085093,0 23.692653,10.60757 23.692653,23.692669 z"
         sodipodi:nodetypes="ssccsccsss"
         inkscape:label="circle" /><g
         id="g436"
         inkscape:label="curve"><rect
           style="opacity:1;fill:#f2e086;fill-opacity:1;fill-rule:evenodd;stroke:none"
           id="rect435"
           width="6.3382483"
           height="16.741442"
           x="88.212944"
           y="61.085304"
           inkscape:label="dw" /><rect
           style="display:inline;opacity:1;fill:#f2e086;fill-opacity:1;fill-rule:evenodd;stroke:none"
           id="rect436"
           width="6.3382483"
           height="16.741442"
           x="15.696949"
           y="-132.29636"
           transform="rotate(120.6231)"
           inkscape:label="up" /></g></g><g
       id="g428"
       inkscape:label="Mekka"
       style="display:inline"
       transform="scale(4)"><g
         id="g426"
         inkscape:label="Right side"><path
           sodipodi:type="inkscape:box3dside"
           id="path415"
           style="display:inline;fill:#333333;fill-opacity:1;fill-rule:evenodd;stroke:none;stroke-linejoin:round"
           inkscape:box3dsidetype="14"
           d="m 55.280807,115.2241 30.695355,-4.57988 V 64.626345 L 55.280807,55.304672 Z"
           points="85.976162,110.64422 85.976162,64.626345 55.280807,55.304672 55.280807,115.2241 "
           inkscape:label="right wall"
           transform="matrix(1,-0.02366618,0,1,-8.07e-4,1.6715063)" /><path
           d="m 55.2813,67.308543 -0.0013,9.694084 30.695,1.261189 v -5.82703 z"
           style="display:inline;fill:#958a53;fill-opacity:1;fill-rule:evenodd;stroke:none;stroke-width:0.999286;stroke-linejoin:round"
           id="path425"
           sodipodi:nodetypes="ccccc"
           inkscape:label="right line" /></g><g
         id="g427"
         transform="matrix(-1,0,0,1,110.58052,0)"
         inkscape:label="Left side"><path
           sodipodi:type="inkscape:box3dside"
           id="path426"
           style="display:inline;fill:#5e5e5e;fill-opacity:1;fill-rule:evenodd;stroke:none;stroke-linejoin:round"
           inkscape:box3dsidetype="14"
           d="M 85.976162,64.626345 55.280807,55.304672 V 115.2241 l 30.695355,-4.57988 z"
           points="55.280807,55.304672 55.280807,115.2241 85.976162,110.64422 85.976162,64.626345 "
           inkscape:label="left wall"
           transform="matrix(1,-0.02366618,0,1,-8.07e-4,1.6715063)" /><path
           d="m 55.2813,67.308543 -0.0013,9.694084 30.695,1.261189 v -5.82703 z"
           style="display:inline;fill:#f2e086;fill-opacity:1;fill-rule:evenodd;stroke:none;stroke-width:0.999286;stroke-linejoin:round"
           id="path427"
           sodipodi:nodetypes="ccccc"
           inkscape:label="left line" /></g></g><g
       id="g429"
       style="display:inline;fill:#f2e086;fill-opacity:1"
       inkscape:label="Minber"
       transform="scale(4)"><path
         id="rect429"
         style="display:inline;opacity:1;fill:#f2e086;fill-opacity:1;fill-rule:evenodd;stroke-width:0.975689"
         d="m 33.003749,48.777283 c 0.198835,2.658195 0.370173,2.79992 0.571137,10.724747 -2.635854,0.814596 -4.785396,1.421149 -8.859914,2.359168 -0.09519,-4.293164 0.586989,-8.87431 1.113744,-12.998038 1.743993,-0.213516 2.768725,0.01293 7.175033,-0.08588 z"
         sodipodi:nodetypes="ccccc" /><g
         id="g430"><path
           id="path428"
           style="display:inline;opacity:1;fill:#f2e086;fill-opacity:1;fill-rule:evenodd"
           d="m 36.191514,34.34419 c -0.0053,3.921975 -2.411478,6.295397 -3.227911,8.455153 0.02172,2.015175 -0.136853,2.750417 -0.09232,3.785113 -2.702695,0.06597 -0.110998,0.01343 -3.470098,0.01883 0.188314,-22.22792 9.42e-4,-0.05857 0.132124,-22.194032 1.805639,2.436134 2.333633,3.197212 3.39456,4.314912 1.32113,1.612293 2.578466,2.881921 3.263643,5.620027 z"
           sodipodi:nodetypes="cccccccc" /><path
           id="path429"
           style="opacity:1;fill:#f2e086;fill-opacity:1;fill-rule:evenodd"
           d="m 22.902489,34.34419 c 0.0053,3.921975 2.411478,6.295397 3.227911,8.455153 -0.02172,2.015175 0.161528,2.757235 0.09232,3.785113 2.943766,-0.109192 0.110998,0.01343 3.470098,0.01883 -0.188314,-22.22792 -9.42e-4,-0.05857 -0.132124,-22.194032 -1.805639,2.436134 -2.333633,3.197212 -3.39456,4.314912 -1.32113,1.612293 -2.578466,2.881921 -3.263643,5.620027 z"
           sodipodi:nodetypes="cccccccc" /></g><path
         id="path430"
         style="display:inline;opacity:1;fill:#f2e086;fill-opacity:1;fill-rule:evenodd;stroke-width:1.55404"
         d="m 32.140911,19.403042 c 0,1.656854 -1.343146,3 -3,3 -1.656854,0 -3.622851,-1.732488 -3.622851,-1.732488 3.243098,1.155962 5.960256,-1.684276 4.703715,-4.753763 0,0 1.919136,1.829397 1.919136,3.486251 z"
         sodipodi:nodetypes="ssccs"
         inkscape:label="Moon" /></g></g></svg>
